<?xml version="1.0" standalone="no"?>
<!DOCTYPE svg PUBLIC "-//W3C//DTD SVG 20010904//EN"
 "http://www.w3.org/TR/2001/REC-SVG-20010904/DTD/svg10.dtd">
<svg version="1.0" xmlns="http://www.w3.org/2000/svg"
 width="700.000000pt" height="700.000000pt" viewBox="0 0 700.000000 700.000000"
 preserveAspectRatio="xMidYMid meet">
<metadata>
Created by potrace 1.14, written by Peter Selinger 2001-2017
</metadata>
<g transform="translate(0.000000,700.000000) scale(0.100000,-0.100000)"
fill="#000000" stroke="none">
<path d="M3477 6974 c-1 -1 -56 -4 -122 -7 -407 -21 -843 -171 -1210 -419
-138 -92 -145 -97 -263 -197 -169 -142 -405 -404 -534 -591 -256 -374 -432
-764 -548 -1217 -22 -83 -42 -164 -44 -180 -3 -15 -10 -52 -16 -82 -6 -30 -17
-102 -25 -160 -9 -58 -18 -121 -20 -139 -27 -189 -27 -797 0 -962 2 -14 7 -47
10 -75 4 -27 8 -59 10 -70 2 -11 6 -42 10 -70 3 -27 11 -70 17 -95 5 -25 12
-58 15 -75 14 -91 127 -488 162 -570 5 -11 26 -63 46 -115 39 -97 145 -318
205 -425 204 -367 455 -664 805 -954 143 -119 421 -280 625 -364 151 -62 356
-123 475 -141 118 -19 186 -28 235 -32 74 -5 350 -6 375 0 11 2 52 7 90 10 39
4 80 8 90 10 365 74 554 141 831 297 83 47 295 188 314 209 3 3 37 31 76 62
145 116 355 336 479 503 33 44 62 82 66 85 7 6 128 192 156 240 183 311 315
631 408 985 30 114 42 169 60 265 3 14 7 36 10 50 7 35 16 90 20 123 37 271
40 320 40 627 0 236 -8 416 -20 480 -2 9 -6 41 -10 71 -17 143 -44 287 -86
459 -115 470 -303 883 -586 1290 -107 153 -376 448 -514 561 -440 363 -940
573 -1435 605 -95 6 -195 10 -197 8z"/>
</g>
</svg>
